<svg width="32" height="32" viewBox="0 0 32 32" fill="none" xmlns="http://www.w3.org/2000/svg">
<g clip-path="url(#clip0_2254_3379)">
<path d="M24.8135 26.9466C24.6835 27.7187 24.2632 28.2251 23.5816 28.5374C22.3845 29.0858 21.3511 28.745 20.3824 27.9767C20.0364 27.7025 19.7253 27.4005 19.4408 27.0274C19.2151 27.3288 19.1317 27.6793 18.9855 27.9903C18.6382 28.7282 18.0931 29.1589 17.2899 29.1673C16.0198 29.1802 14.9514 28.7534 14.2944 27.5816C14.242 27.4885 14.2109 27.3837 14.1657 27.2867C14.1256 27.2001 14.1075 27.1005 14.0001 27.0222C13.7718 27.3947 13.5196 27.751 13.1808 28.0285C12.6337 28.4766 12.0626 28.8711 11.2937 28.7457C10.6936 28.6474 10.1814 28.3783 9.72288 27.9851C9.18547 27.5247 8.84725 26.944 8.62932 26.186C8.42367 26.5973 8.16951 26.8832 7.9186 27.1755C7.11669 28.1087 5.44757 27.9431 4.70969 27.1341C3.86317 26.2061 3.96728 25.1623 4.34107 24.0875C4.55966 23.4589 5.06537 23.0418 5.48702 22.5438C4.17358 21.5848 3.35874 20.2533 2.70429 18.8066C2.2322 17.7648 2.06923 16.6557 2.01879 15.5246C1.97481 14.5481 1.99745 13.5748 2.2018 12.6145C2.32015 12.0564 2.5245 11.5241 2.76443 11.0087C3.34775 9.75673 4.1102 8.62177 5.07313 7.63039C5.75346 6.93002 6.50169 6.31178 7.30165 5.7401C8.65842 4.77005 10.1465 4.12788 11.7412 3.69524C13.2137 3.29559 14.718 3.16625 16.237 3.14749C17.5007 3.13197 18.7643 3.1255 20.0112 3.35638C20.5466 3.45532 21.0756 3.60406 21.5872 3.80066C23.0028 4.34517 24.2296 5.20334 25.4538 6.07767C26.806 7.04319 27.8834 8.25251 28.7163 9.67007C29.4012 10.8354 29.8959 12.0913 29.9321 13.4668C29.958 14.4433 29.8435 15.4147 29.5849 16.3614C29.4691 16.7863 29.3643 17.2138 29.2253 17.6328C29.0209 18.2498 28.6711 18.7697 28.241 19.2418C27.6693 19.8685 27.1268 20.5249 26.4309 21.0261C26.4076 21.0429 26.3979 21.0778 26.3662 21.1295C26.978 21.2634 27.5523 21.4729 28.0528 21.8234C28.6323 22.2289 29.235 22.6396 29.5771 23.2791C30.1514 24.352 30.2671 25.9034 29.1147 26.8735C28.5915 27.3139 27.9222 27.429 27.2587 27.5331C26.4128 27.6657 25.6749 27.3779 24.9545 26.9951C24.917 26.975 24.8782 26.9569 24.8388 26.9407C24.831 26.9375 24.8181 26.9453 24.8129 26.9472L24.8135 26.9466ZM29.4575 13.9635C29.4859 13.0361 29.3132 12.1495 28.9783 11.2855C28.7636 10.7307 28.4842 10.2159 28.1841 9.7037C27.6887 8.85782 27.086 8.10118 26.385 7.42539C25.5954 6.66358 24.679 6.06474 23.7601 5.47042C22.984 4.96859 22.2048 4.47581 21.3265 4.1738C20.0429 3.73211 18.7081 3.59824 17.3604 3.59177C16.6846 3.58854 16.0081 3.63898 15.3323 3.64222C14.416 3.6461 13.5151 3.77349 12.6201 3.95328C11.5666 4.16475 10.5565 4.51137 9.57478 4.94919C8.17857 5.5726 6.93627 6.42107 5.84141 7.48036C4.8345 8.45428 4.02096 9.56789 3.36068 10.8141C2.67583 12.1055 2.45983 13.4888 2.43979 14.8999C2.42944 15.6436 2.52321 16.4073 2.6726 17.1523C2.83427 17.9581 3.14081 18.7115 3.49714 19.4423C3.85476 20.1744 4.36888 20.8081 4.89271 21.4276C5.21282 21.8066 5.55622 22.1649 6.09491 22.2244C6.19062 22.2354 6.27534 22.2916 6.30121 22.4029C6.3329 22.5374 6.24753 22.6046 6.15376 22.6603C5.85434 22.8368 5.6073 23.0741 5.36673 23.3205C4.63079 24.0746 4.41221 24.9955 4.58164 25.9979C4.70387 26.7202 5.37255 27.2518 6.05999 27.3333C7.07401 27.4542 7.73235 26.9343 8.05311 26.2455C8.23806 25.8472 8.45665 25.4624 8.56788 25.0317C8.60539 24.8875 8.70433 24.8092 8.85566 24.8357C9.01087 24.8629 9.05678 24.9825 9.05549 25.1242C9.05549 25.1888 9.04514 25.2529 9.04385 25.3175C9.01087 26.598 9.58901 27.5176 10.7117 28.099C10.9969 28.2464 11.3047 28.335 11.6449 28.2833C12.2806 28.1863 12.7345 27.8002 13.1433 27.3553C13.497 26.9705 13.7835 26.5411 13.68 25.9694C13.6541 25.8271 13.746 25.7366 13.8598 25.6984C14.0008 25.6519 14.0842 25.7696 14.1308 25.8743C14.1909 26.0095 14.2491 26.1459 14.2937 26.2908C14.5776 27.2117 14.932 28.0834 15.9422 28.4592C16.1743 28.5458 16.4071 28.6209 16.6483 28.6752C17.6443 28.8996 18.3905 28.4611 18.7217 27.4904C18.8491 27.1166 19.0204 26.7603 19.0735 26.3626C19.0896 26.2417 19.1627 26.1382 19.3004 26.1201C19.435 26.1026 19.5255 26.1744 19.5831 26.2908C19.8831 26.8981 20.3009 27.3941 20.8635 27.7853C21.5128 28.2367 22.2041 28.4566 22.9853 28.2891C23.923 28.088 24.3887 27.4135 24.2302 26.499C24.2031 26.3412 24.2503 26.2539 24.3686 26.1763C24.4992 26.0903 24.6208 26.08 24.7514 26.1854C24.9351 26.3335 25.056 26.5521 25.2701 26.6627C26.1147 27.0985 26.9897 27.2434 27.9151 26.9401C28.3665 26.792 28.8043 26.631 29.1044 26.23C29.7601 25.3544 29.6398 24.4031 29.1755 23.5533C28.5243 22.3615 27.3751 21.7872 26.0759 21.5111C25.9064 21.4749 25.7047 21.4833 25.651 21.2847C25.6012 21.1011 25.7784 21.006 25.8883 20.8928C25.9252 20.8547 25.9718 20.8256 26.0151 20.7939C26.8196 20.1944 27.4676 19.4365 28.113 18.6805C28.4906 18.2388 28.7183 17.7104 28.8935 17.1498C29.2195 16.1079 29.4329 15.0525 29.4562 13.9609L29.4575 13.9635Z" fill="#2D1514"/>
<path d="M29.4573 13.9636C29.4347 15.0552 29.2206 16.1106 28.8947 17.1524C28.7195 17.7125 28.4925 18.2408 28.1141 18.6832C27.4687 19.4385 26.8208 20.1971 26.0163 20.7966C25.9736 20.8289 25.9264 20.8574 25.8895 20.8955C25.7802 21.0087 25.603 21.1044 25.6522 21.2874C25.7059 21.4859 25.9076 21.4782 26.0771 21.5138C27.3769 21.7899 28.5261 22.3642 29.1767 23.556C29.6403 24.4058 29.7613 25.3571 29.1055 26.2327C28.8055 26.6337 28.3677 26.7947 27.9163 26.9428C26.9915 27.2461 26.1159 27.1012 25.2713 26.6653C25.0572 26.5548 24.9363 26.3362 24.7526 26.1881C24.622 26.0827 24.5004 26.093 24.3698 26.179C24.2514 26.2566 24.2036 26.3439 24.2314 26.5017C24.3898 27.4162 23.9242 28.0907 22.9865 28.2918C22.2053 28.4593 21.514 28.2394 20.8647 27.788C20.3021 27.3968 19.8843 26.9007 19.5842 26.2935C19.5267 26.1771 19.4361 26.1053 19.3016 26.1228C19.1645 26.1402 19.0908 26.2443 19.0746 26.3653C19.0216 26.763 18.8502 27.1193 18.7228 27.4931C18.3917 28.4638 17.6454 28.9029 16.6495 28.6779C16.4077 28.6235 16.1755 28.5479 15.9433 28.4619C14.9338 28.0861 14.5788 27.2144 14.2949 26.2935C14.2503 26.1486 14.1914 26.0122 14.1319 25.877C14.0854 25.7729 14.0019 25.6546 13.861 25.7011C13.7471 25.7393 13.6553 25.8298 13.6812 25.9721C13.7847 26.5438 13.4982 26.9732 13.1444 27.3579C12.7357 27.8022 12.2817 28.1883 11.646 28.286C11.3059 28.3377 10.998 28.2497 10.7129 28.1017C9.59019 27.5203 9.01139 26.6007 9.04502 25.3202C9.04696 25.2555 9.05666 25.1915 9.05666 25.1268C9.05731 24.9846 9.01204 24.8656 8.85683 24.8384C8.70551 24.8119 8.60656 24.8902 8.56905 25.0344C8.45782 25.4651 8.23924 25.8499 8.05428 26.2482C7.73352 26.9369 7.07519 27.4569 6.06117 27.336C5.37373 27.2538 4.70505 26.7229 4.58282 26.0005C4.41339 24.9982 4.63197 24.0766 5.36791 23.3232C5.60848 23.0768 5.85552 22.8395 6.15494 22.6629C6.24936 22.6073 6.33472 22.5394 6.30238 22.4056C6.27587 22.2943 6.1918 22.2381 6.09609 22.2271C5.55674 22.1669 5.214 21.8086 4.89388 21.4303C4.37006 20.8108 3.85529 20.177 3.49831 19.445C3.14198 18.7142 2.83545 17.9608 2.67377 17.155C2.52439 16.41 2.43062 15.6463 2.44096 14.9026C2.46101 13.4921 2.67701 12.1082 3.36186 10.8168C4.02278 9.57057 4.83568 8.45696 5.84258 7.48304C6.93744 6.42375 8.18039 5.57529 9.57596 4.95187C10.5576 4.51341 11.5671 4.16743 12.6213 3.95596C13.5156 3.77618 14.4165 3.64878 15.3335 3.6449C16.0093 3.64231 16.6857 3.59187 17.3615 3.59446C18.7099 3.60092 20.044 3.73479 21.3277 4.17648C22.2059 4.47849 22.9852 4.97127 23.7612 5.47311C24.6802 6.06742 25.5966 6.66626 26.3862 7.42807C27.0865 8.10387 27.6899 8.86115 28.1853 9.70638C28.4854 10.2186 28.7641 10.7333 28.9794 11.2882C29.3144 12.1522 29.4864 13.0388 29.4586 13.9662L29.4573 13.9636Z" fill="#DF4438"/>
<path d="M13.375 8.00176C13.2917 8.46691 13.1769 8.96981 12.4495 9.01663C11.8035 9.05892 11.611 8.58773 11.6258 8.20413C11.6424 7.78127 11.7591 7.26628 12.518 7.2693C13.0714 7.27081 13.3269 7.55322 13.3731 8.00327L13.375 8.00176Z" fill="#2D1514"/>
<path d="M20.2698 6.39433C20.9776 6.38941 21.2093 6.78363 21.246 7.24027C21.2846 7.71663 21.0438 8.10592 20.4297 8.14206C19.7091 8.18313 19.5675 7.64764 19.5068 7.21563C19.4406 6.75571 19.8672 6.50931 20.2698 6.39433Z" fill="#2D1514"/>
<path d="M13.3761 13.5196C13.3966 12.4506 14.0768 11.7704 14.9088 11.3355C16.342 10.5876 17.8398 10.5609 19.2924 11.3734C20.1737 11.8658 20.4158 12.6958 20.3696 13.615C20.3255 14.487 19.6689 14.9353 18.9816 15.3087C18.1055 15.7848 17.1309 15.9622 16.1655 16.1346C14.7252 16.3921 13.3628 15.0913 13.3751 13.5186L13.3761 13.5196ZM16.0701 15.3734C16.8313 15.318 17.7382 15.0584 18.601 14.6378C19.1919 14.3506 19.6217 13.9207 19.6135 13.2293C19.6053 12.5563 19.1796 12.1521 18.5928 11.8853C17.2868 11.2913 16.0814 11.5396 14.9293 12.2967C14.2984 12.7122 14.0204 13.3698 14.2122 14.0038C14.4861 14.9117 15.0555 15.3826 16.0701 15.3734Z" fill="#2D1514"/>
<path d="M16.0703 15.3734C15.0567 15.3816 14.4873 14.9108 14.2124 14.0039C14.0205 13.3699 14.2985 12.7123 14.9295 12.2968C16.0815 11.5397 17.288 11.2914 18.5929 11.8854C19.1797 12.1521 19.6055 12.5574 19.6137 13.2293C19.6219 13.9208 19.1921 14.3506 18.6011 14.6379C17.7384 15.0575 16.8315 15.318 16.0703 15.3734ZM15.9892 13.9321C16.495 13.8243 16.9925 13.7115 17.4932 13.613C17.7773 13.5576 18.0646 13.534 18.32 13.3699C18.4955 13.257 18.6237 13.1267 18.5457 12.9144C18.477 12.7266 18.2954 12.6856 18.119 12.7174C17.3649 12.8559 16.6109 12.9995 15.861 13.1554C15.6158 13.2067 15.4558 13.3863 15.5122 13.6397C15.5624 13.8643 15.7861 13.9095 15.9892 13.9321Z" fill="#F1BBBC"/>
<path d="M15.9892 13.9318C15.785 13.9093 15.5624 13.8641 15.5121 13.6395C15.4547 13.3861 15.6158 13.2065 15.8609 13.1552C16.6119 12.9993 17.3649 12.8567 18.1189 12.7172C18.2954 12.6843 18.477 12.7264 18.5457 12.9141C18.6237 13.1265 18.4954 13.2558 18.32 13.3696C18.0646 13.5338 17.7773 13.5574 17.4931 13.6128C16.9925 13.7113 16.4949 13.8231 15.9892 13.9318Z" fill="#2D1514"/>
</g>
<defs>
<clipPath id="clip0_2254_3379">
<rect width="28" height="26.0263" fill="white" transform="translate(2 3.14099)"/>
</clipPath>
</defs>
</svg>
